<svg xmlns="http://www.w3.org/2000/svg" version="1.1" xmlns:xlink="http://www.w3.org/1999/xlink" xmlns:svgjs="http://svgjs.com/svgjs" width="1920" height="1080" preserveAspectRatio="none" viewBox="0 0 1920 1080"><g mask="url(&quot;#SvgjsMask1041&quot;)" fill="none"><path d="M489.4823968962955-43.6153742643544L406.76299813744936 226.94758776545115 677.3259601672548 309.6669865242973 760.045358926101 39.10402449449171z" fill="rgba(0, 0, 0, 0.07)" class="triangle-float3"></path><path d="M1352.5719984701068 494.5749373287157L1496.9092433913913 377.6929409961025 1380.0272470587781 233.35569607481796 1235.6900021374936 350.23769240743115z" fill="rgba(0, 0, 0, 0.07)" class="triangle-float2"></path><path d="M-85.03 5.68 a297.19 297.19 0 1 0 594.38 0 a297.19 297.19 0 1 0 -594.38 0z" fill="rgba(0, 0, 0, 0.07)" class="triangle-float3"></path><path d="M1862.3544513360089 30.334757174591218L1606.4178192494462-38.243256706544656 1537.8398053683102 217.6933753800181 1793.776437454873 286.27138926115396z" fill="rgba(0, 0, 0, 0.07)" class="triangle-float3"></path><path d="M1237.33 9.87 a296.87 296.87 0 1 0 593.74 0 a296.87 296.87 0 1 0 -593.74 0z" fill="rgba(0, 0, 0, 0.07)" class="triangle-float1"></path><path d="M1256.43 673.07 a329.57 329.57 0 1 0 659.14 0 a329.57 329.57 0 1 0 -659.14 0z" fill="rgba(0, 0, 0, 0.07)" class="triangle-float1"></path><path d="M385.771,456.105C477.774,456.766,549.264,386.019,595.272,306.344C641.287,226.657,661.712,132.159,620.278,49.996C574.692,-40.402,487.007,-110.227,385.771,-109.098C286.079,-107.986,204.414,-34.206,160.154,55.129C120.638,134.89,137.769,225.795,181.419,303.371C226.075,382.806,294.627,455.45,385.771,456.105" fill="rgba(0, 0, 0, 0.07)" class="triangle-float1"></path><path d="M15.07 824.36 a277.22 277.22 0 1 0 554.44 0 a277.22 277.22 0 1 0 -554.44 0z" fill="rgba(0, 0, 0, 0.07)" class="triangle-float3"></path><path d="M1465.361,1114.274C1520.482,1115.244,1570.283,1083.552,1598.434,1036.151C1627.229,987.666,1631.468,928.473,1605.408,878.465C1577.218,824.367,1526.361,781.215,1465.361,780.784C1403.74,780.349,1349.367,821.326,1321.845,876.462C1296.919,926.399,1311.323,983.821,1340.16,1031.606C1367.855,1077.498,1411.768,1113.331,1465.361,1114.274" fill="rgba(0, 0, 0, 0.07)" class="triangle-float3"></path><path d="M762.41 576.14 a182.69 182.69 0 1 0 365.38 0 a182.69 182.69 0 1 0 -365.38 0z" fill="rgba(0, 0, 0, 0.07)" class="triangle-float1"></path><path d="M901.363,1129.642C986.509,1126.231,1053.396,1068.882,1099.926,997.493C1152.623,916.641,1201.073,820.918,1159.26,733.956C1113.07,638.068,1007.687,580.49,901.363,584.924C801.423,589.092,725.127,665.673,678.212,754.016C634.541,836.25,625.63,934.54,673.186,1014.59C719.815,1093.08,810.14,1133.297,901.363,1129.642" fill="rgba(0, 0, 0, 0.07)" class="triangle-float2"></path><path d="M1390.73 504.62 a274.73 274.73 0 1 0 549.46 0 a274.73 274.73 0 1 0 -549.46 0z" fill="rgba(0, 0, 0, 0.07)" class="triangle-float1"></path><path d="M1811.5968903357361 74.50253049943814L1620.6863141153426 67.83578627370909 1614.0195698896136 258.74636249410264 1804.9301461100072 265.4131067198317z" fill="rgba(0, 0, 0, 0.07)" class="triangle-float1"></path><path d="M554.614,1252.311C623.606,1256.832,682.967,1206.517,716.279,1145.931C748.334,1087.631,751.664,1015.549,715.492,959.71C681.908,907.865,616.331,893.758,554.614,896.363C498.079,898.749,443.239,922.959,415.656,972.366C388.684,1020.679,401.306,1077.34,425.907,1126.902C454.452,1184.408,490.55,1248.073,554.614,1252.311" fill="rgba(0, 0, 0, 0.07)" class="triangle-float3"></path><path d="M1194.41 201.23 a187.37 187.37 0 1 0 374.74 0 a187.37 187.37 0 1 0 -374.74 0z" fill="rgba(0, 0, 0, 0.07)" class="triangle-float2"></path><path d="M-118.28 635.24 a196.62 196.62 0 1 0 393.24 0 a196.62 196.62 0 1 0 -393.24 0z" fill="rgba(0, 0, 0, 0.07)" class="triangle-float1"></path></g><defs><mask id="SvgjsMask1041"><rect width="1920" height="1080" fill="#ffffff"></rect></mask><style>
            @keyframes float1 {
                0%{transform: translate(0, 0)}
                50%{transform: translate(-10px, 0)}
                100%{transform: translate(0, 0)}
            }

            .triangle-float1 {
                animation: float1 5s infinite;
            }

            @keyframes float2 {
                0%{transform: translate(0, 0)}
                50%{transform: translate(-5px, -5px)}
                100%{transform: translate(0, 0)}
            }

            .triangle-float2 {
                animation: float2 4s infinite;
            }

            @keyframes float3 {
                0%{transform: translate(0, 0)}
                50%{transform: translate(0, -10px)}
                100%{transform: translate(0, 0)}
            }

            .triangle-float3 {
                animation: float3 6s infinite;
            }
        </style></defs></svg>